<svg width="450" height="500" viewBox="0 0 450 500" fill="none" xmlns="http://www.w3.org/2000/svg">
<path fill-rule="evenodd" clip-rule="evenodd" d="M0 20C0 8.9543 8.95433 0 20 0H47.374C53.2858 0 58.8948 2.61549 62.6949 7.14423L264.538 247.692C271.638 256.153 284.253 257.257 292.715 250.157L369.319 185.878C377.781 178.778 378.884 166.163 371.784 157.701L267.026 32.8557C256.106 19.8418 265.359 0 282.347 0H430C441.046 0 450 8.95432 450 20V480C450 491.046 441.046 500 430 500H402.256C396.344 500 390.735 497.385 386.935 492.856L185.102 252.321C178.002 243.859 165.387 242.756 156.925 249.856L80.3209 314.135C71.8594 321.235 70.7557 333.85 77.8558 342.311L182.603 467.144C193.523 480.158 184.271 500 167.282 500H20C8.95431 500 0 491.046 0 480V20Z" fill="#282828"/>
</svg>
